<svg width="20" height="20" viewBox="0 0 20 20" fill="none" xmlns="http://www.w3.org/2000/svg">
<path d="M16.4583 6.09166H14.8916C14.7333 3.525 12.6033 1.48666 9.99996 1.48666C7.39663 1.48666 5.26663 3.52666 5.10829 6.09166H3.54163C2.50829 6.09166 1.66663 6.93083 1.66663 7.96666V16.4917C1.66663 17.525 2.50829 18.3667 3.54163 18.3667H16.4583C17.4916 18.3667 18.3333 17.525 18.3333 16.4917V7.96666C18.3333 6.93166 17.4916 6.09166 16.4583 6.09166ZM10.625 13.0725V14.2358C10.625 14.5808 10.345 14.8608 9.99996 14.8608C9.65496 14.8608 9.37496 14.5808 9.37496 14.2358V13.0725C8.73829 12.8225 8.28579 12.2058 8.28579 11.4808C8.28579 10.5333 9.05246 9.76583 9.99996 9.76583C10.9466 9.76583 11.7141 10.5325 11.7141 11.4792C11.7141 12.2042 11.2616 12.8208 10.625 13.0708V13.0725ZM6.37329 6.09166C6.53163 4.21666 8.08746 2.73666 9.99996 2.73666C11.9125 2.73666 13.4691 4.2175 13.6266 6.08916H6.37329V6.09166Z" fill="#D9D9D9"/>
</svg>
